<?xml version="1.0" standalone="no"?>
<!DOCTYPE svg PUBLIC "-//W3C//DTD SVG 20010904//EN"
 "http://www.w3.org/TR/2001/REC-SVG-20010904/DTD/svg10.dtd">
<svg version="1.0" xmlns="http://www.w3.org/2000/svg"
 width="700.000000pt" height="700.000000pt" viewBox="0 0 700.000000 700.000000"
 preserveAspectRatio="xMidYMid meet">
<metadata>
Created by potrace 1.11, written by Peter Selinger 2001-2013
</metadata>
<g transform="translate(0.000000,700.000000) scale(0.100000,-0.100000)"
fill="#000000" stroke="none">
<path d="M3335 6993 c-48 -6 -208 -32 -230 -37 -11 -3 -38 -10 -61 -15 -191
-47 -490 -197 -639 -322 -394 -330 -609 -727 -661 -1224 -4 -38 -8 -289 -8
-557 l0 -488 -291 -1 c-339 -1 -357 -2 -410 -19 -157 -51 -257 -161 -291 -321
-7 -33 -6 -3613 1 -3666 18 -138 139 -278 278 -322 61 -19 111 -20 2472 -20
1692 -1 2422 2 2450 10 72 19 144 61 194 111 52 52 104 148 115 210 4 21 7
853 7 1850 0 1742 -1 1816 -19 1873 -34 110 -101 191 -201 243 -95 50 -83 49
-479 51 l-298 1 0 473 c0 429 -5 586 -20 672 -5 34 -23 128 -30 163 -11 56
-79 243 -118 326 -81 174 -206 352 -342 489 -58 59 -97 94 -209 185 -10 8 -57
39 -104 68 -197 124 -414 208 -646 250 -83 15 -385 26 -460 17z m345 -277
c325 -39 635 -191 870 -426 234 -235 369 -503 425 -845 10 -58 14 -221 15
-587 l1 -508 -136 0 c-74 0 -135 3 -136 8 0 4 -2 237 -3 517 -2 329 -7 526
-14 555 -6 25 -14 61 -17 80 -9 54 -53 178 -88 250 -112 233 -309 435 -547
561 -144 76 -254 16 -241 -133 2 -31 52 -78 122 -114 181 -95 325 -242 414
-422 42 -85 82 -220 91 -305 7 -65 12 -949 6 -979 -4 -15 -29 -17 -246 -20
-211 -3 -245 -5 -269 -21 -38 -24 -58 -59 -62 -105 -4 -52 19 -97 64 -124 l36
-23 955 0 c779 -1 961 -3 988 -14 20 -8 42 -30 57 -56 l25 -42 0 -1787 c0
-1980 5 -1830 -64 -1879 l-31 -22 -2384 -1 -2385 0 -40 20 c-77 39 -71 -125
-71 1886 l0 1805 24 32 c13 17 38 38 55 45 25 10 234 13 1011 13 l980 0 36 23
c69 42 84 146 30 203 -43 44 -66 48 -331 49 -139 0 -256 2 -259 4 -8 5 -6 926
3 991 9 72 14 95 37 171 77 248 252 451 498 574 75 37 87 48 105 92 38 93 -44
201 -140 183 -66 -12 -183 -75 -295 -158 -192 -143 -344 -353 -419 -576 -61
-183 -63 -199 -66 -751 -1 -278 -3 -511 -3 -517 -1 -10 -35 -13 -136 -13
l-136 0 2 508 c1 504 3 556 38 712 121 556 587 1012 1150 1125 150 31 331 38
481 21z"/>
<path d="M3421 6424 c-56 -47 -70 -105 -42 -164 59 -124 250 -96 268 39 7 49
-20 107 -61 132 -48 29 -126 26 -165 -7z"/>
<path d="M3460 4333 c-43 -22 -80 -76 -80 -115 0 -66 51 -129 114 -140 67 -13
147 39 160 103 22 110 -95 202 -194 152z"/>
<path d="M3420 3179 c-109 -19 -180 -48 -262 -109 -143 -106 -228 -272 -230
-454 -2 -155 66 -317 175 -418 l30 -27 -22 -203 c-12 -112 -24 -223 -26 -248
-10 -100 -26 -247 -30 -280 -16 -121 -15 -166 2 -199 10 -19 31 -44 46 -55 28
-20 41 -21 393 -22 316 -1 370 1 396 15 50 25 71 62 72 123 0 53 -12 199 -19
228 -2 8 -7 51 -11 95 -3 44 -7 87 -9 95 -2 8 -6 44 -9 80 -6 64 -12 121 -20
190 -3 19 -7 70 -11 113 l-7 78 42 41 c49 50 100 134 123 205 21 63 36 167 31
208 -12 95 -16 114 -31 159 -37 113 -127 229 -233 300 -102 68 -271 104 -390
85z m182 -286 c65 -23 126 -77 162 -143 38 -70 44 -170 15 -247 -19 -49 -106
-153 -128 -153 -17 0 -52 -69 -53 -102 -1 -29 6 -118 17 -203 2 -16 7 -61 10
-100 4 -38 9 -77 10 -86 2 -8 6 -53 10 -100 4 -46 9 -92 11 -103 5 -26 17
-155 18 -190 l1 -30 -170 0 -170 0 1 35 c1 41 13 164 19 199 2 14 7 57 10 95
4 39 8 86 11 105 2 19 6 58 9 85 31 266 32 294 14 337 -6 15 -39 50 -73 76
-88 69 -125 145 -122 251 2 94 30 156 98 215 84 73 197 95 300 59z"/>
</g>
</svg>
